{"title":"Karwaan 2018 Hindi 1080p WEB-DL x264 ESub [MW]","magnet":"magnet:?xt=urn:btih:f888e50254fcb9175cefb293c7f0511e0f3ecd37&dn=Karwaan+2018+Hindi+1080p+WEB-DL+x264+ESub+%5BMW%5D&tr=udp%3A%2F%2Ftracker.leechers-paradise.org%3A6969&tr=udp%3A%2F%2Fzer0day.ch%3A1337&tr=udp%3A%2F%2Fopen.demonii.com%3A1337&tr=udp%3A%2F%2Ftracker.coppersurfer.tk%3A6969&tr=udp%3A%2F%2Fexodus.desync.com%3A6969","uploader":"MFreaky","categoryP":"video","categoryS":"hd___movies","size":"2127812191","seeders":"16","leechers":"23","description":" <a href=\"https://pichub.site/image/E96Zd\" rel=\"nofollow\" target=\"_NEW\">https://pichub.site/image/E96Zd</a> <a href=\"\nhttps://pichub.site/image/E9s6R\" rel=\"nofollow\" target=\"_NEW\">\nhttps://pichub.site/image/E9s6R</a> <a href=\"\nhttps://pichub.site/image/E9nAu\" rel=\"nofollow\" target=\"_NEW\">\nhttps://pichub.site/image/E9nAu</a> <a href=\"\nhttps://pichub.site/image/E9Z4s\" rel=\"nofollow\" target=\"_NEW\">\nhttps://pichub.site/image/E9Z4s</a> <a href=\"\nhttps://pichub.site/image/E91CB\" rel=\"nofollow\" target=\"_NEW\">\nhttps://pichub.site/image/E91CB</a>\r\n\r\nIMDB <a href=\"\nhttps://www.imdb.com/title/tt7919680/\" rel=\"nofollow\" target=\"_NEW\">\nhttps://www.imdb.com/title/tt7919680/</a>\r\n\r\nVideo\r\nFormat : AVC\r\nFormat/Info : Advanced Video Codec\r\nFormat profile : High@L4.1\r\nFormat settings : CABAC / 4 Ref Frames\r\nFormat settings, CABAC : Yes\r\nFormat settings, RefFrames : 4 frames\r\nCodec ID : V_MPEG4/ISO/AVC\r\nDuration : 1 h 53 min\r\nBit rate : 2 400 kb/s\r\nWidth : 1 920 pixels\r\nHeight : 812 pixels\r\nDisplay aspect ratio : 2.35:1\r\nFrame rate mode : Constant\r\nFrame rate : 23.976 (23976/1000) FPS\r\nColor space : YUV\r\nChroma subsampling : 4:2:0\r\nBit depth : 8 bits\r\nBits/(Pixel*Frame) : 0.064\r\nStream size : 1.88 GiB (95%)\r\nWriting library : x264 core 155 r2901 7d0ff22\r\n\r\nAudio\r\nFormat : AAC\r\nFormat/Info : Advanced Audio Codec\r\nFormat profile : LC\r\nCodec ID : A_AAC-2\r\nDuration : 1 h 53 min\r\nBit rate : 128 kb/s\r\nChannel(s) : 2 channels\r\nChannel positions : Front: L R\r\nSampling rate : 48.0 kHz\r\nFrame rate : 46.875 FPS (1024 SPF)\r\nStream size : 104 MiB (5%)\r\nLanguage : Hindi","last_updated":"2018-10-02T12:48:42.028Z","parsed":{"xt":"urn:btih:f888e50254fcb9175cefb293c7f0511e0f3ecd37","dn":"Karwaan 2018 Hindi 1080p WEB-DL x264 ESub [MW]","tr":["udp://exodus.desync.com:6969","udp://open.demonii.com:1337","udp://tracker.coppersurfer.tk:6969","udp://tracker.leechers-paradise.org:6969","udp://zer0day.ch:1337"],"infoHash":"f888e50254fcb9175cefb293c7f0511e0f3ecd37","infoHashBuffer":{"type":"Buffer","data":[248,136,229,2,84,252,185,23,92,239,178,147,199,240,81,30,15,62,205,55]},"name":"Karwaan 2018 Hindi 1080p WEB-DL x264 ESub [MW]","announce":["udp://exodus.desync.com:6969","udp://open.demonii.com:1337","udp://tracker.coppersurfer.tk:6969","udp://tracker.leechers-paradise.org:6969","udp://zer0day.ch:1337"],"urlList":[]}}